<svg xmlns="http://www.w3.org/2000/svg" stroke-width="1.75" viewBox="0 0 72 72" fill="currentColor"><g fill="none" stroke="currentColor" stroke-width="3.5"><path stroke-miterlimit="10" d="M26.3 33.1h19.3a1.686 1.686 0 0 1 1.7 1.7v14.1a1.686 1.686 0 0 1-1.7 1.7H26.3a1.686 1.686 0 0 1-1.7-1.7V34.8a1.83 1.83 0 0 1 1.7-1.7Z"/><path stroke-linejoin="round" d="M53 29.5v30.2a3.135 3.135 0 0 1-2.9 3.3H21.9a3.135 3.135 0 0 1-2.9-3.3V29.5a15.04 15.04 0 0 1 2.2-7.8l1.8-3v-4.2h-.9a1.58 1.58 0 0 1-1.6-1.6v-2.4a1.58 1.58 0 0 1 1.6-1.6h27.8a1.58 1.58 0 0 1 1.6 1.6v2.4a1.58 1.58 0 0 1-1.6 1.6H49v4.2l1.8 3a14.8 14.8 0 0 1 2.2 7.8ZM49.6 14.5H23"/></g></svg>