<svg xmlns="http://www.w3.org/2000/svg" stroke-width="1.75" viewBox="0 0 72 72" fill="currentColor"><g fill="none" stroke="currentColor" stroke-linecap="round" stroke-linejoin="round" stroke-width="3.5"><path d="m34.417 14.631 4.304-6.134a20 20 0 0 0-1.22 2.24c-2.787 6.103 2.123 6.374 2.123 6.374C51.11 18.61 59.936 27.59 59.936 38.444c0 11.903-10.615 21.552-23.71 21.552s-23.709-9.65-23.709-21.552c0-8.232 5.077-15.386 12.54-19.016a25 25 0 0 1 3.088-1.252l.248-.08q.162-.052.325-.101a25.5 25.5 0 0 1 3.283-.762M35.993 60.204l-5.797 2.59ZM40.931 62.794l-4.938-2.59v2.59"/><path d="M32.376 53.455c-2.33-2.343-3.983-8.237-3.983-15.137 0-5.805 1.17-10.897 2.928-13.763M23.726 49.892c-1.755-1.765-3-6.206-3-11.405 0-4.373.88-8.21 2.205-10.369M49.28 49.892c1.755-1.765 3-6.206 3-11.405 0-4.373-.881-8.21-2.205-10.369M39.216 53.455c2.33-2.343 3.982-8.237 3.982-15.137 0-5.805-1.17-10.897-2.928-13.763"/></g></svg>